# xmcd
#
# Track frame offsets: 
#        150
#        17767
#        32331
#        50295
#        69609
#        86835
#        105597
#        120960
#        137258
#        155635
#
# Disc length: 2290 seconds
#
# Revision: 0
# Processed by: cddbd v1.5.2PL0 Copyright (c) Steve Scherf et al.
# Submitted via: ExactAudioCopy v1.0b3
#
DISCID=7308f00a
DTITLE=Bazoo - บาซู สอง ศูนย์ ศูนย์ หนึ่ง 
DYEAR=1900
DGENRE=Pop
TTITLE0=ลำตัด2001
TTITLE1=VERY...กรี๊ด
TTITLE2=สนุกกับชีวิต
TTITLE3=ทำไมต้องคนนี้
TTITLE4=โอ๊ย...เจ็บ
TTITLE5=สวยในซอย
TTITLE6=ใจช้ำช้ำ
TTITLE7=เลือกให้ดี
TTITLE8=พรุ่งนี้คงสายไป
TTITLE9=พลาดไม่ได้
EXTD=
EXTT0=
EXTT1=
EXTT2=
EXTT3=
EXTT4=
EXTT5=
EXTT6=
EXTT7=
EXTT8=
EXTT9=
PLAYORDER=
